<?xml version="1.0" encoding="utf-8"?>
<!-- Generator: Adobe Illustrator 16.0.0, SVG Export Plug-In . SVG Version: 6.00 Build 0)  -->
<!DOCTYPE svg PUBLIC "-//W3C//DTD SVG 1.1//EN" "http://www.w3.org/Graphics/SVG/1.1/DTD/svg11.dtd">
<svg version="1.1" id="Layer_1" xmlns="http://www.w3.org/2000/svg" xmlns:xlink="http://www.w3.org/1999/xlink" x="0px" y="0px"
	 width="288px" height="216px" viewBox="0 0 288 216" enable-background="new 0 0 288 216" xml:space="preserve">
<g>
	<g>
		<circle fill="#FF0000" cx="62.515" cy="166.513" r="17.113"/>
		<circle fill="#FF0000" cx="109.485" cy="166.513" r="17.113"/>
		<path fill="#FF0000" d="M121.912,116.513c-9.258,9.068-21.929,14.666-35.911,14.666c-13.983,0-26.653-5.598-35.912-14.666H35v51
			h6.05c-0.015-0.334-0.05-0.662-0.05-1c0-11.883,9.633-21.516,21.515-21.516c11.883,0,21.516,9.633,21.516,21.516
			c0,0.338-0.035,0.666-0.051,1h4.04c-0.015-0.334-0.05-0.662-0.05-1c0-11.883,9.633-21.516,21.515-21.516
			c11.883,0,21.516,9.633,21.516,21.516c0,0.338-0.035,0.666-0.051,1H137v-51H121.912z"/>
	</g>
	<g>
		<circle fill="#FF0000" cx="178.515" cy="166.513" r="17.113"/>
		<circle fill="#FF0000" cx="225.485" cy="166.513" r="17.113"/>
		<path fill="#FF0000" d="M237.912,116.513c-9.259,9.068-21.929,14.666-35.911,14.666c-13.983,0-26.654-5.598-35.912-14.666H151v51
			h6.051c-0.016-0.334-0.051-0.662-0.051-1c0-11.883,9.633-21.516,21.516-21.516c11.882,0,21.515,9.633,21.515,21.516
			c0,0.338-0.035,0.666-0.05,1h4.04c-0.016-0.334-0.051-0.662-0.051-1c0-11.883,9.633-21.516,21.516-21.516S247,154.63,247,166.513
			c0,0.338-0.035,0.666-0.051,1H253v-51H237.912z"/>
	</g>
	<g>
		<path fill="#FF0000" d="M76.398,123.638c-9.386-32.285-7.349-56.528,5.891-70.109c7.621-7.816,22.608-15.579,50.737-8.177
			l-5.092,19.342c-10.382-2.734-24.243-4.467-31.324,2.796c-7.688,7.888-8.056,26.318-1.007,50.566L76.398,123.638z"/>
		<g>
			<polygon fill="#FF0000" points="118.088,72.302 157.333,65.181 131.547,34.751 			"/>
		</g>
	</g>
	<g>
		<path fill="#FF0000" d="M160.049,86.897c0.491,10.469,4.82,19.928,11.606,27.021c7.247-6.867,11.94-16.402,12.466-27.021H160.049z
			"/>
		<path fill="#FF0000" d="M243.95,82.897c-0.492-10.469-4.821-19.93-11.607-27.021c-7.246,6.865-11.939,16.402-12.465,27.021H243.95
			z"/>
		<path fill="#FF0000" d="M188.122,82.897H200V42.948c-9.711,0.455-18.553,4.213-25.443,10.17
			C182.486,60.702,187.595,71.21,188.122,82.897z"/>
		<path fill="#FF0000" d="M204,82.897h11.878c0.525-11.688,5.635-22.193,13.564-29.779c-6.891-5.957-15.732-9.715-25.442-10.17
			V82.897z"/>
		<path fill="#FF0000" d="M184.122,82.897c-0.525-10.619-5.219-20.156-12.466-27.021c-6.786,7.092-11.115,16.551-11.606,27.021
			H184.122z"/>
		<path fill="#FF0000" d="M219.877,86.897c0.525,10.619,5.219,20.154,12.465,27.021c6.786-7.094,11.115-16.553,11.607-27.021
			H219.877z"/>
		<path fill="#FF0000" d="M200,86.897h-11.878c-0.526,11.686-5.636,22.193-13.565,29.779c6.891,5.955,15.732,9.715,25.443,10.17
			V86.897z"/>
		<path fill="#FF0000" d="M215.877,86.897H204v39.949c9.71-0.455,18.552-4.215,25.442-10.17
			C221.512,109.091,216.403,98.583,215.877,86.897z"/>
	</g>
</g>
<path fill="#FF0000" d="M258,13.188c9.926,0,18,8.074,18,18v156c0,9.926-8.074,18-18,18H30c-9.925,0-18-8.074-18-18v-156
	c0-9.926,8.075-18,18-18H258 M258,1.188H30c-16.568,0-30,13.432-30,30v156c0,16.568,13.432,30,30,30h228c16.568,0,30-13.432,30-30
	v-156C288,14.62,274.569,1.188,258,1.188L258,1.188z"/>
</svg>
